<svg width="478" height="121" viewBox="0 0 478 121" fill="none" xmlns="http://www.w3.org/2000/svg">
<rect width="478" height="121" fill="white"/>
<path d="M159 38H139C138.448 38 138 38.4477 138 39V59C138 59.5523 138.448 60 139 60H159C159.552 60 160 59.5523 160 59V39C160 38.4477 159.552 38 159 38Z" stroke="#2658D7" stroke-linecap="round" stroke-linejoin="round"/>
<path d="M160 52.9999L154.712 47.7124C154.619 47.6179 154.509 47.5429 154.386 47.4917C154.264 47.4404 154.133 47.4141 154 47.4141C153.867 47.4141 153.736 47.4404 153.614 47.4917C153.491 47.5429 153.381 47.6179 153.288 47.7124L147.712 53.2874C147.619 53.3819 147.509 53.4569 147.386 53.5081C147.264 53.5593 147.133 53.5857 147 53.5857C146.867 53.5857 146.736 53.5593 146.614 53.5081C146.491 53.4569 146.381 53.3819 146.288 53.2874L143.712 50.7124C143.619 50.6179 143.509 50.5429 143.386 50.4917C143.264 50.4404 143.133 50.4141 143 50.4141C142.867 50.4141 142.736 50.4404 142.614 50.4917C142.491 50.5429 142.381 50.6179 142.288 50.7124L138 54.9999" stroke="#2658D7" stroke-linecap="round" stroke-linejoin="round"/>
<path d="M145.5 45.5C146.052 45.5 146.5 45.0523 146.5 44.5C146.5 43.9477 146.052 43.5 145.5 43.5C144.948 43.5 144.5 43.9477 144.5 44.5C144.5 45.0523 144.948 45.5 145.5 45.5Z" fill="#2658D7"/>
<path d="M175.656 39.848V46.904C175.656 47.896 175.896 48.632 176.376 49.112C176.867 49.592 177.544 49.832 178.408 49.832C179.261 49.832 179.928 49.592 180.408 49.112C180.899 48.632 181.144 47.896 181.144 46.904V39.848H182.6V46.888C182.6 47.816 182.413 48.6 182.04 49.24C181.667 49.8693 181.16 50.3387 180.52 50.648C179.891 50.9573 179.181 51.112 178.392 51.112C177.603 51.112 176.888 50.9573 176.248 50.648C175.619 50.3387 175.117 49.8693 174.744 49.24C174.381 48.6 174.2 47.816 174.2 46.888V39.848H175.656ZM186.485 43.848C186.773 43.3467 187.2 42.9307 187.765 42.6C188.341 42.2587 189.008 42.088 189.765 42.088C190.544 42.088 191.248 42.2747 191.877 42.648C192.517 43.0213 193.018 43.5493 193.381 44.232C193.744 44.904 193.925 45.688 193.925 46.584C193.925 47.4693 193.744 48.2587 193.381 48.952C193.018 49.6453 192.517 50.184 191.877 50.568C191.248 50.952 190.544 51.144 189.765 51.144C189.018 51.144 188.357 50.9787 187.781 50.648C187.216 50.3067 186.784 49.8853 186.485 49.384V55.16H185.029V42.232H186.485V43.848ZM192.437 46.584C192.437 45.9227 192.304 45.3467 192.037 44.856C191.77 44.3653 191.408 43.992 190.949 43.736C190.501 43.48 190.005 43.352 189.461 43.352C188.928 43.352 188.432 43.4853 187.973 43.752C187.525 44.008 187.162 44.3867 186.885 44.888C186.618 45.3787 186.485 45.9493 186.485 46.6C186.485 47.2613 186.618 47.8427 186.885 48.344C187.162 48.8347 187.525 49.2133 187.973 49.48C188.432 49.736 188.928 49.864 189.461 49.864C190.005 49.864 190.501 49.736 190.949 49.48C191.408 49.2133 191.77 48.8347 192.037 48.344C192.304 47.8427 192.437 47.256 192.437 46.584ZM197.297 39.16V51H195.841V39.16H197.297ZM203.603 51.144C202.782 51.144 202.035 50.9573 201.363 50.584C200.702 50.2107 200.179 49.6827 199.795 49C199.422 48.3067 199.235 47.5067 199.235 46.6C199.235 45.704 199.427 44.9147 199.811 44.232C200.206 43.5387 200.739 43.0107 201.411 42.648C202.083 42.2747 202.835 42.088 203.667 42.088C204.499 42.088 205.251 42.2747 205.923 42.648C206.595 43.0107 207.123 43.5333 207.507 44.216C207.902 44.8987 208.099 45.6933 208.099 46.6C208.099 47.5067 207.896 48.3067 207.491 49C207.096 49.6827 206.558 50.2107 205.875 50.584C205.192 50.9573 204.435 51.144 203.603 51.144ZM203.603 49.864C204.126 49.864 204.616 49.7413 205.075 49.496C205.534 49.2507 205.902 48.8827 206.179 48.392C206.467 47.9013 206.611 47.304 206.611 46.6C206.611 45.896 206.472 45.2987 206.195 44.808C205.918 44.3173 205.555 43.9547 205.107 43.72C204.659 43.4747 204.174 43.352 203.651 43.352C203.118 43.352 202.627 43.4747 202.179 43.72C201.742 43.9547 201.39 44.3173 201.123 44.808C200.856 45.2987 200.723 45.896 200.723 46.6C200.723 47.3147 200.851 47.9173 201.107 48.408C201.374 48.8987 201.726 49.2667 202.163 49.512C202.6 49.7467 203.08 49.864 203.603 49.864ZM209.469 46.584C209.469 45.688 209.651 44.904 210.013 44.232C210.376 43.5493 210.872 43.0213 211.501 42.648C212.141 42.2747 212.851 42.088 213.629 42.088C214.397 42.088 215.064 42.2533 215.629 42.584C216.195 42.9147 216.616 43.3307 216.893 43.832V42.232H218.365V51H216.893V49.368C216.605 49.88 216.173 50.3067 215.597 50.648C215.032 50.9787 214.371 51.144 213.613 51.144C212.835 51.144 212.131 50.952 211.501 50.568C210.872 50.184 210.376 49.6453 210.013 48.952C209.651 48.2587 209.469 47.4693 209.469 46.584ZM216.893 46.6C216.893 45.9387 216.76 45.3627 216.493 44.872C216.227 44.3813 215.864 44.008 215.405 43.752C214.957 43.4853 214.461 43.352 213.917 43.352C213.373 43.352 212.877 43.48 212.429 43.736C211.981 43.992 211.624 44.3653 211.357 44.856C211.091 45.3467 210.957 45.9227 210.957 46.584C210.957 47.256 211.091 47.8427 211.357 48.344C211.624 48.8347 211.981 49.2133 212.429 49.48C212.877 49.736 213.373 49.864 213.917 49.864C214.461 49.864 214.957 49.736 215.405 49.48C215.864 49.2133 216.227 48.8347 216.493 48.344C216.76 47.8427 216.893 47.2613 216.893 46.6ZM220.282 46.584C220.282 45.688 220.463 44.904 220.826 44.232C221.188 43.5493 221.684 43.0213 222.314 42.648C222.954 42.2747 223.668 42.088 224.458 42.088C225.14 42.088 225.775 42.248 226.362 42.568C226.948 42.8773 227.396 43.288 227.706 43.8V39.16H229.178V51H227.706V49.352C227.418 49.8747 226.991 50.3067 226.426 50.648C225.86 50.9787 225.199 51.144 224.442 51.144C223.663 51.144 222.954 50.952 222.314 50.568C221.684 50.184 221.188 49.6453 220.826 48.952C220.463 48.2587 220.282 47.4693 220.282 46.584ZM227.706 46.6C227.706 45.9387 227.572 45.3627 227.306 44.872C227.039 44.3813 226.676 44.008 226.218 43.752C225.77 43.4853 225.274 43.352 224.73 43.352C224.186 43.352 223.69 43.48 223.242 43.736C222.794 43.992 222.436 44.3653 222.17 44.856C221.903 45.3467 221.77 45.9227 221.77 46.584C221.77 47.256 221.903 47.8427 222.17 48.344C222.436 48.8347 222.794 49.2133 223.242 49.48C223.69 49.736 224.186 49.864 224.73 49.864C225.274 49.864 225.77 49.736 226.218 49.48C226.676 49.2133 227.039 48.8347 227.306 48.344C227.572 47.8427 227.706 47.2613 227.706 46.6ZM243.36 43.112C243.36 44.04 243.04 44.8133 242.4 45.432C241.771 46.04 240.805 46.344 239.504 46.344H237.36V51H235.904V39.848H239.504C240.763 39.848 241.717 40.152 242.368 40.76C243.029 41.368 243.36 42.152 243.36 43.112ZM239.504 45.144C240.315 45.144 240.912 44.968 241.296 44.616C241.68 44.264 241.872 43.7627 241.872 43.112C241.872 41.736 241.083 41.048 239.504 41.048H237.36V45.144H239.504ZM249.522 42.072C250.183 42.072 250.78 42.216 251.314 42.504C251.847 42.7813 252.263 43.2027 252.562 43.768C252.871 44.3333 253.026 45.0213 253.026 45.832V51H251.586V46.04C251.586 45.1653 251.367 44.4987 250.93 44.04C250.492 43.5707 249.895 43.336 249.138 43.336C248.37 43.336 247.756 43.576 247.298 44.056C246.85 44.536 246.626 45.2347 246.626 46.152V51H245.17V39.16H246.626V43.48C246.914 43.032 247.308 42.6853 247.81 42.44C248.322 42.1947 248.892 42.072 249.522 42.072ZM259.228 51.144C258.407 51.144 257.66 50.9573 256.988 50.584C256.327 50.2107 255.804 49.6827 255.42 49C255.047 48.3067 254.86 47.5067 254.86 46.6C254.86 45.704 255.052 44.9147 255.436 44.232C255.831 43.5387 256.364 43.0107 257.036 42.648C257.708 42.2747 258.46 42.088 259.292 42.088C260.124 42.088 260.876 42.2747 261.548 42.648C262.22 43.0107 262.748 43.5333 263.132 44.216C263.527 44.8987 263.724 45.6933 263.724 46.6C263.724 47.5067 263.521 48.3067 263.116 49C262.721 49.6827 262.183 50.2107 261.5 50.584C260.817 50.9573 260.06 51.144 259.228 51.144ZM259.228 49.864C259.751 49.864 260.241 49.7413 260.7 49.496C261.159 49.2507 261.527 48.8827 261.804 48.392C262.092 47.9013 262.236 47.304 262.236 46.6C262.236 45.896 262.097 45.2987 261.82 44.808C261.543 44.3173 261.18 43.9547 260.732 43.72C260.284 43.4747 259.799 43.352 259.276 43.352C258.743 43.352 258.252 43.4747 257.804 43.72C257.367 43.9547 257.015 44.3173 256.748 44.808C256.481 45.2987 256.348 45.896 256.348 46.6C256.348 47.3147 256.476 47.9173 256.732 48.408C256.999 48.8987 257.351 49.2667 257.788 49.512C258.225 49.7467 258.705 49.864 259.228 49.864ZM267.414 43.432V48.6C267.414 49.0267 267.505 49.3307 267.686 49.512C267.868 49.6827 268.182 49.768 268.63 49.768H269.702V51H268.39C267.58 51 266.972 50.8133 266.566 50.44C266.161 50.0667 265.958 49.4533 265.958 48.6V43.432H264.822V42.232H265.958V40.024H267.414V42.232H269.702V43.432H267.414ZM275.29 51.144C274.469 51.144 273.722 50.9573 273.05 50.584C272.389 50.2107 271.866 49.6827 271.482 49C271.109 48.3067 270.922 47.5067 270.922 46.6C270.922 45.704 271.114 44.9147 271.498 44.232C271.893 43.5387 272.426 43.0107 273.098 42.648C273.77 42.2747 274.522 42.088 275.354 42.088C276.186 42.088 276.938 42.2747 277.61 42.648C278.282 43.0107 278.81 43.5333 279.194 44.216C279.589 44.8987 279.786 45.6933 279.786 46.6C279.786 47.5067 279.584 48.3067 279.178 49C278.784 49.6827 278.245 50.2107 277.562 50.584C276.88 50.9573 276.122 51.144 275.29 51.144ZM275.29 49.864C275.813 49.864 276.304 49.7413 276.762 49.496C277.221 49.2507 277.589 48.8827 277.866 48.392C278.154 47.9013 278.298 47.304 278.298 46.6C278.298 45.896 278.16 45.2987 277.882 44.808C277.605 44.3173 277.242 43.9547 276.794 43.72C276.346 43.4747 275.861 43.352 275.338 43.352C274.805 43.352 274.314 43.4747 273.866 43.72C273.429 43.9547 273.077 44.3173 272.81 44.808C272.544 45.2987 272.41 45.896 272.41 46.6C272.41 47.3147 272.538 47.9173 272.794 48.408C273.061 48.8987 273.413 49.2667 273.85 49.512C274.288 49.7467 274.768 49.864 275.29 49.864ZM284.805 51.144C284.133 51.144 283.53 51.032 282.997 50.808C282.463 50.5733 282.042 50.2533 281.733 49.848C281.423 49.432 281.253 48.9573 281.221 48.424H282.725C282.767 48.8613 282.97 49.2187 283.333 49.496C283.706 49.7733 284.191 49.912 284.789 49.912C285.343 49.912 285.781 49.7893 286.101 49.544C286.421 49.2987 286.581 48.9893 286.581 48.616C286.581 48.232 286.41 47.9493 286.069 47.768C285.727 47.576 285.199 47.3893 284.485 47.208C283.834 47.0373 283.301 46.8667 282.885 46.696C282.479 46.5147 282.127 46.2533 281.829 45.912C281.541 45.56 281.397 45.1013 281.397 44.536C281.397 44.088 281.53 43.6773 281.797 43.304C282.063 42.9307 282.442 42.6373 282.933 42.424C283.423 42.2 283.983 42.088 284.613 42.088C285.583 42.088 286.367 42.3333 286.965 42.824C287.562 43.3147 287.882 43.9867 287.925 44.84H286.469C286.437 44.3813 286.25 44.0133 285.909 43.736C285.578 43.4587 285.13 43.32 284.565 43.32C284.042 43.32 283.626 43.432 283.317 43.656C283.007 43.88 282.853 44.1733 282.853 44.536C282.853 44.824 282.943 45.064 283.125 45.256C283.317 45.4373 283.551 45.5867 283.829 45.704C284.117 45.8107 284.511 45.9333 285.013 46.072C285.642 46.2427 286.154 46.4133 286.549 46.584C286.943 46.744 287.279 46.9893 287.557 47.32C287.845 47.6507 287.994 48.0827 288.005 48.616C288.005 49.096 287.871 49.528 287.605 49.912C287.338 50.296 286.959 50.6 286.469 50.824C285.989 51.0373 285.434 51.144 284.805 51.144Z" fill="#2658D7"/>
<path d="M178.136 63.636V69.816C178.136 70.504 177.924 71.056 177.5 71.472C177.076 71.88 176.516 72.084 175.82 72.084C175.116 72.084 174.552 71.876 174.128 71.46C173.704 71.036 173.492 70.46 173.492 69.732H174.584C174.592 70.14 174.696 70.472 174.896 70.728C175.104 70.984 175.412 71.112 175.82 71.112C176.228 71.112 176.532 70.992 176.732 70.752C176.932 70.504 177.032 70.192 177.032 69.816V63.636H178.136ZM186.119 66.084C186.119 66.78 185.879 67.36 185.399 67.824C184.927 68.28 184.203 68.508 183.227 68.508H181.619V72H180.527V63.636H183.227C184.171 63.636 184.887 63.864 185.375 64.32C185.871 64.776 186.119 65.364 186.119 66.084ZM183.227 67.608C183.835 67.608 184.283 67.476 184.571 67.212C184.859 66.948 185.003 66.572 185.003 66.084C185.003 65.052 184.411 64.536 183.227 64.536H181.619V67.608H183.227ZM188.808 64.524V67.32H191.856V68.22H188.808V71.1H192.216V72H187.716V63.624H192.216V64.524H188.808ZM200.445 66.06C200.213 65.572 199.877 65.196 199.437 64.932C198.997 64.66 198.485 64.524 197.901 64.524C197.317 64.524 196.789 64.66 196.317 64.932C195.853 65.196 195.485 65.58 195.213 66.084C194.949 66.58 194.817 67.156 194.817 67.812C194.817 68.468 194.949 69.044 195.213 69.54C195.485 70.036 195.853 70.42 196.317 70.692C196.789 70.956 197.317 71.088 197.901 71.088C198.717 71.088 199.389 70.844 199.917 70.356C200.445 69.868 200.753 69.208 200.841 68.376H197.505V67.488H202.005V68.328C201.941 69.016 201.725 69.648 201.357 70.224C200.989 70.792 200.505 71.244 199.905 71.58C199.305 71.908 198.637 72.072 197.901 72.072C197.125 72.072 196.417 71.892 195.777 71.532C195.137 71.164 194.629 70.656 194.253 70.008C193.885 69.36 193.701 68.628 193.701 67.812C193.701 66.996 193.885 66.264 194.253 65.616C194.629 64.96 195.137 64.452 195.777 64.092C196.417 63.724 197.125 63.54 197.901 63.54C198.789 63.54 199.573 63.76 200.253 64.2C200.941 64.64 201.441 65.26 201.753 66.06H200.445ZM207.769 60.696L204.481 74.04H203.401L206.677 60.696H207.769ZM215.228 66.084C215.228 66.78 214.988 67.36 214.508 67.824C214.036 68.28 213.312 68.508 212.336 68.508H210.728V72H209.636V63.636H212.336C213.28 63.636 213.996 63.864 214.484 64.32C214.98 64.776 215.228 65.364 215.228 66.084ZM212.336 67.608C212.944 67.608 213.392 67.476 213.68 67.212C213.968 66.948 214.112 66.572 214.112 66.084C214.112 65.052 213.52 64.536 212.336 64.536H210.728V67.608H212.336ZM223.401 72H222.309L217.917 65.34V72H216.825V63.624H217.917L222.309 70.272V63.624H223.401V72ZM231.838 66.06C231.606 65.572 231.27 65.196 230.83 64.932C230.39 64.66 229.878 64.524 229.294 64.524C228.71 64.524 228.182 64.66 227.71 64.932C227.246 65.196 226.878 65.58 226.606 66.084C226.342 66.58 226.21 67.156 226.21 67.812C226.21 68.468 226.342 69.044 226.606 69.54C226.878 70.036 227.246 70.42 227.71 70.692C228.182 70.956 228.71 71.088 229.294 71.088C230.11 71.088 230.782 70.844 231.31 70.356C231.838 69.868 232.146 69.208 232.234 68.376H228.898V67.488H233.398V68.328C233.334 69.016 233.118 69.648 232.75 70.224C232.382 70.792 231.898 71.244 231.298 71.58C230.698 71.908 230.03 72.072 229.294 72.072C228.518 72.072 227.81 71.892 227.17 71.532C226.53 71.164 226.022 70.656 225.646 70.008C225.278 69.36 225.094 68.628 225.094 67.812C225.094 66.996 225.278 66.264 225.646 65.616C226.022 64.96 226.53 64.452 227.17 64.092C227.81 63.724 228.518 63.54 229.294 63.54C230.182 63.54 230.966 63.76 231.646 64.2C232.334 64.64 232.834 65.26 233.146 66.06H231.838ZM239.614 63.636V72H238.522V63.636H239.614ZM249.623 65.304C250.135 65.304 250.591 65.412 250.991 65.628C251.391 65.836 251.707 66.152 251.939 66.576C252.171 67 252.287 67.516 252.287 68.124V72H251.207V68.28C251.207 67.624 251.043 67.124 250.715 66.78C250.395 66.428 249.959 66.252 249.407 66.252C248.839 66.252 248.387 66.436 248.051 66.804C247.715 67.164 247.547 67.688 247.547 68.376V72H246.467V68.28C246.467 67.624 246.303 67.124 245.975 66.78C245.655 66.428 245.219 66.252 244.667 66.252C244.099 66.252 243.647 66.436 243.311 66.804C242.975 67.164 242.807 67.688 242.807 68.376V72H241.715V65.424H242.807V66.372C243.023 66.028 243.311 65.764 243.671 65.58C244.039 65.396 244.443 65.304 244.883 65.304C245.435 65.304 245.923 65.428 246.347 65.676C246.771 65.924 247.087 66.288 247.295 66.768C247.479 66.304 247.783 65.944 248.207 65.688C248.631 65.432 249.103 65.304 249.623 65.304ZM253.91 68.688C253.91 68.016 254.046 67.428 254.318 66.924C254.59 66.412 254.962 66.016 255.434 65.736C255.914 65.456 256.446 65.316 257.03 65.316C257.606 65.316 258.106 65.44 258.53 65.688C258.954 65.936 259.27 66.248 259.478 66.624V65.424H260.582V72H259.478V70.776C259.262 71.16 258.938 71.48 258.506 71.736C258.082 71.984 257.586 72.108 257.018 72.108C256.434 72.108 255.906 71.964 255.434 71.676C254.962 71.388 254.59 70.984 254.318 70.464C254.046 69.944 253.91 69.352 253.91 68.688ZM259.478 68.7C259.478 68.204 259.378 67.772 259.178 67.404C258.978 67.036 258.706 66.756 258.362 66.564C258.026 66.364 257.654 66.264 257.246 66.264C256.838 66.264 256.466 66.36 256.13 66.552C255.794 66.744 255.526 67.024 255.326 67.392C255.126 67.76 255.026 68.192 255.026 68.688C255.026 69.192 255.126 69.632 255.326 70.008C255.526 70.376 255.794 70.66 256.13 70.86C256.466 71.052 256.838 71.148 257.246 71.148C257.654 71.148 258.026 71.052 258.362 70.86C258.706 70.66 258.978 70.376 259.178 70.008C259.378 69.632 259.478 69.196 259.478 68.7ZM265.379 65.316C265.947 65.316 266.443 65.44 266.867 65.688C267.299 65.936 267.619 66.248 267.827 66.624V65.424H268.931V72.144C268.931 72.744 268.803 73.276 268.547 73.74C268.291 74.212 267.923 74.58 267.443 74.844C266.971 75.108 266.419 75.24 265.787 75.24C264.923 75.24 264.203 75.036 263.627 74.628C263.051 74.22 262.711 73.664 262.607 72.96H263.687C263.807 73.36 264.055 73.68 264.431 73.92C264.807 74.168 265.259 74.292 265.787 74.292C266.387 74.292 266.875 74.104 267.251 73.728C267.635 73.352 267.827 72.824 267.827 72.144V70.764C267.611 71.148 267.291 71.468 266.867 71.724C266.443 71.98 265.947 72.108 265.379 72.108C264.795 72.108 264.263 71.964 263.783 71.676C263.311 71.388 262.939 70.984 262.667 70.464C262.395 69.944 262.259 69.352 262.259 68.688C262.259 68.016 262.395 67.428 262.667 66.924C262.939 66.412 263.311 66.016 263.783 65.736C264.263 65.456 264.795 65.316 265.379 65.316ZM267.827 68.7C267.827 68.204 267.727 67.772 267.527 67.404C267.327 67.036 267.055 66.756 266.711 66.564C266.375 66.364 266.003 66.264 265.595 66.264C265.187 66.264 264.815 66.36 264.479 66.552C264.143 66.744 263.875 67.024 263.675 67.392C263.475 67.76 263.375 68.192 263.375 68.688C263.375 69.192 263.475 69.632 263.675 70.008C263.875 70.376 264.143 70.66 264.479 70.86C264.815 71.052 265.187 71.148 265.595 71.148C266.003 71.148 266.375 71.052 266.711 70.86C267.055 70.66 267.327 70.376 267.527 70.008C267.727 69.632 267.827 69.196 267.827 68.7ZM277.017 68.46C277.017 68.668 277.005 68.888 276.981 69.12H271.725C271.765 69.768 271.985 70.276 272.385 70.644C272.793 71.004 273.285 71.184 273.861 71.184C274.333 71.184 274.725 71.076 275.037 70.86C275.357 70.636 275.581 70.34 275.709 69.972H276.885C276.709 70.604 276.357 71.12 275.829 71.52C275.301 71.912 274.645 72.108 273.861 72.108C273.237 72.108 272.677 71.968 272.181 71.688C271.693 71.408 271.309 71.012 271.029 70.5C270.749 69.98 270.609 69.38 270.609 68.7C270.609 68.02 270.745 67.424 271.017 66.912C271.289 66.4 271.669 66.008 272.157 65.736C272.653 65.456 273.221 65.316 273.861 65.316C274.485 65.316 275.037 65.452 275.517 65.724C275.997 65.996 276.365 66.372 276.621 66.852C276.885 67.324 277.017 67.86 277.017 68.46ZM275.889 68.232C275.889 67.816 275.797 67.46 275.613 67.164C275.429 66.86 275.177 66.632 274.857 66.48C274.545 66.32 274.197 66.24 273.813 66.24C273.261 66.24 272.789 66.416 272.397 66.768C272.013 67.12 271.793 67.608 271.737 68.232H275.889ZM281.026 72.108C280.522 72.108 280.07 72.024 279.67 71.856C279.27 71.68 278.954 71.44 278.722 71.136C278.49 70.824 278.362 70.468 278.338 70.068H279.466C279.498 70.396 279.65 70.664 279.922 70.872C280.202 71.08 280.566 71.184 281.014 71.184C281.43 71.184 281.758 71.092 281.998 70.908C282.238 70.724 282.358 70.492 282.358 70.212C282.358 69.924 282.23 69.712 281.974 69.576C281.718 69.432 281.322 69.292 280.786 69.156C280.298 69.028 279.898 68.9 279.586 68.772C279.282 68.636 279.018 68.44 278.794 68.184C278.578 67.92 278.47 67.576 278.47 67.152C278.47 66.816 278.57 66.508 278.77 66.228C278.97 65.948 279.254 65.728 279.622 65.568C279.99 65.4 280.41 65.316 280.882 65.316C281.61 65.316 282.198 65.5 282.646 65.868C283.094 66.236 283.334 66.74 283.366 67.38H282.274C282.25 67.036 282.11 66.76 281.854 66.552C281.606 66.344 281.27 66.24 280.846 66.24C280.454 66.24 280.142 66.324 279.91 66.492C279.678 66.66 279.562 66.88 279.562 67.152C279.562 67.368 279.63 67.548 279.766 67.692C279.91 67.828 280.086 67.94 280.294 68.028C280.51 68.108 280.806 68.2 281.182 68.304C281.654 68.432 282.038 68.56 282.334 68.688C282.63 68.808 282.882 68.992 283.09 69.24C283.306 69.488 283.418 69.812 283.426 70.212C283.426 70.572 283.326 70.896 283.126 71.184C282.926 71.472 282.642 71.7 282.274 71.868C281.914 72.028 281.498 72.108 281.026 72.108ZM297.407 65.424L295.355 72H294.227L292.643 66.78L291.059 72H289.931L287.867 65.424H288.983L290.495 70.944L292.127 65.424H293.243L294.839 70.956L296.327 65.424H297.407ZM299.295 64.356C299.087 64.356 298.911 64.284 298.767 64.14C298.623 63.996 298.551 63.82 298.551 63.612C298.551 63.404 298.623 63.228 298.767 63.084C298.911 62.94 299.087 62.868 299.295 62.868C299.495 62.868 299.663 62.94 299.799 63.084C299.943 63.228 300.015 63.404 300.015 63.612C300.015 63.82 299.943 63.996 299.799 64.14C299.663 64.284 299.495 64.356 299.295 64.356ZM299.823 65.424V72H298.731V65.424H299.823ZM301.516 68.688C301.516 68.016 301.652 67.428 301.924 66.924C302.196 66.412 302.568 66.016 303.04 65.736C303.52 65.456 304.056 65.316 304.648 65.316C305.16 65.316 305.636 65.436 306.076 65.676C306.516 65.908 306.852 66.216 307.084 66.6V63.12H308.188V72H307.084V70.764C306.868 71.156 306.548 71.48 306.124 71.736C305.7 71.984 305.204 72.108 304.636 72.108C304.052 72.108 303.52 71.964 303.04 71.676C302.568 71.388 302.196 70.984 301.924 70.464C301.652 69.944 301.516 69.352 301.516 68.688ZM307.084 68.7C307.084 68.204 306.984 67.772 306.784 67.404C306.584 67.036 306.312 66.756 305.968 66.564C305.632 66.364 305.26 66.264 304.852 66.264C304.444 66.264 304.072 66.36 303.736 66.552C303.4 66.744 303.132 67.024 302.932 67.392C302.732 67.76 302.632 68.192 302.632 68.688C302.632 69.192 302.732 69.632 302.932 70.008C303.132 70.376 303.4 70.66 303.736 70.86C304.072 71.052 304.444 71.148 304.852 71.148C305.26 71.148 305.632 71.052 305.968 70.86C306.312 70.66 306.584 70.376 306.784 70.008C306.984 69.632 307.084 69.196 307.084 68.7ZM316.273 68.46C316.273 68.668 316.261 68.888 316.237 69.12H310.981C311.021 69.768 311.241 70.276 311.641 70.644C312.049 71.004 312.541 71.184 313.117 71.184C313.589 71.184 313.981 71.076 314.293 70.86C314.613 70.636 314.837 70.34 314.965 69.972H316.141C315.965 70.604 315.613 71.12 315.085 71.52C314.557 71.912 313.901 72.108 313.117 72.108C312.493 72.108 311.933 71.968 311.437 71.688C310.949 71.408 310.565 71.012 310.285 70.5C310.005 69.98 309.865 69.38 309.865 68.7C309.865 68.02 310.001 67.424 310.273 66.912C310.545 66.4 310.925 66.008 311.413 65.736C311.909 65.456 312.477 65.316 313.117 65.316C313.741 65.316 314.293 65.452 314.773 65.724C315.253 65.996 315.621 66.372 315.877 66.852C316.141 67.324 316.273 67.86 316.273 68.46ZM315.145 68.232C315.145 67.816 315.053 67.46 314.869 67.164C314.685 66.86 314.433 66.632 314.113 66.48C313.801 66.32 313.453 66.24 313.069 66.24C312.517 66.24 312.045 66.416 311.653 66.768C311.269 67.12 311.049 67.608 310.993 68.232H315.145ZM324.262 72.108C323.646 72.108 323.086 71.968 322.582 71.688C322.086 71.408 321.694 71.012 321.406 70.5C321.126 69.98 320.986 69.38 320.986 68.7C320.986 68.028 321.13 67.436 321.418 66.924C321.714 66.404 322.114 66.008 322.618 65.736C323.122 65.456 323.686 65.316 324.31 65.316C324.934 65.316 325.498 65.456 326.002 65.736C326.506 66.008 326.902 66.4 327.19 66.912C327.486 67.424 327.634 68.02 327.634 68.7C327.634 69.38 327.482 69.98 327.178 70.5C326.882 71.012 326.478 71.408 325.966 71.688C325.454 71.968 324.886 72.108 324.262 72.108ZM324.262 71.148C324.654 71.148 325.022 71.056 325.366 70.872C325.71 70.688 325.986 70.412 326.194 70.044C326.41 69.676 326.518 69.228 326.518 68.7C326.518 68.172 326.414 67.724 326.206 67.356C325.998 66.988 325.726 66.716 325.39 66.54C325.054 66.356 324.69 66.264 324.298 66.264C323.898 66.264 323.53 66.356 323.194 66.54C322.866 66.716 322.602 66.988 322.402 67.356C322.202 67.724 322.102 68.172 322.102 68.7C322.102 69.236 322.198 69.688 322.39 70.056C322.59 70.424 322.854 70.7 323.182 70.884C323.51 71.06 323.87 71.148 324.262 71.148ZM330.401 66.492C330.593 66.116 330.865 65.824 331.217 65.616C331.577 65.408 332.013 65.304 332.525 65.304V66.432H332.237C331.013 66.432 330.401 67.096 330.401 68.424V72H329.309V65.424H330.401V66.492ZM176.252 86.108C175.748 86.108 175.296 86.024 174.896 85.856C174.496 85.68 174.18 85.44 173.948 85.136C173.716 84.824 173.588 84.468 173.564 84.068H174.692C174.724 84.396 174.876 84.664 175.148 84.872C175.428 85.08 175.792 85.184 176.24 85.184C176.656 85.184 176.984 85.092 177.224 84.908C177.464 84.724 177.584 84.492 177.584 84.212C177.584 83.924 177.456 83.712 177.2 83.576C176.944 83.432 176.548 83.292 176.012 83.156C175.524 83.028 175.124 82.9 174.812 82.772C174.508 82.636 174.244 82.44 174.02 82.184C173.804 81.92 173.696 81.576 173.696 81.152C173.696 80.816 173.796 80.508 173.996 80.228C174.196 79.948 174.48 79.728 174.848 79.568C175.216 79.4 175.636 79.316 176.108 79.316C176.836 79.316 177.424 79.5 177.872 79.868C178.32 80.236 178.56 80.74 178.592 81.38H177.5C177.476 81.036 177.336 80.76 177.08 80.552C176.832 80.344 176.496 80.24 176.072 80.24C175.68 80.24 175.368 80.324 175.136 80.492C174.904 80.66 174.788 80.88 174.788 81.152C174.788 81.368 174.856 81.548 174.992 81.692C175.136 81.828 175.312 81.94 175.52 82.028C175.736 82.108 176.032 82.2 176.408 82.304C176.88 82.432 177.264 82.56 177.56 82.688C177.856 82.808 178.108 82.992 178.316 83.24C178.532 83.488 178.644 83.812 178.652 84.212C178.652 84.572 178.552 84.896 178.352 85.184C178.152 85.472 177.868 85.7 177.5 85.868C177.14 86.028 176.724 86.108 176.252 86.108ZM188.342 79.304C188.854 79.304 189.31 79.412 189.71 79.628C190.11 79.836 190.426 80.152 190.658 80.576C190.89 81 191.006 81.516 191.006 82.124V86H189.926V82.28C189.926 81.624 189.762 81.124 189.434 80.78C189.114 80.428 188.678 80.252 188.126 80.252C187.558 80.252 187.106 80.436 186.77 80.804C186.434 81.164 186.266 81.688 186.266 82.376V86H185.186V82.28C185.186 81.624 185.022 81.124 184.694 80.78C184.374 80.428 183.938 80.252 183.386 80.252C182.818 80.252 182.366 80.436 182.03 80.804C181.694 81.164 181.526 81.688 181.526 82.376V86H180.434V79.424H181.526V80.372C181.742 80.028 182.03 79.764 182.39 79.58C182.758 79.396 183.162 79.304 183.602 79.304C184.154 79.304 184.642 79.428 185.066 79.676C185.49 79.924 185.806 80.288 186.014 80.768C186.198 80.304 186.502 79.944 186.926 79.688C187.35 79.432 187.822 79.304 188.342 79.304ZM192.629 82.688C192.629 82.016 192.765 81.428 193.037 80.924C193.309 80.412 193.681 80.016 194.153 79.736C194.633 79.456 195.165 79.316 195.749 79.316C196.325 79.316 196.825 79.44 197.249 79.688C197.673 79.936 197.989 80.248 198.197 80.624V79.424H199.301V86H198.197V84.776C197.981 85.16 197.657 85.48 197.225 85.736C196.801 85.984 196.305 86.108 195.737 86.108C195.153 86.108 194.625 85.964 194.153 85.676C193.681 85.388 193.309 84.984 193.037 84.464C192.765 83.944 192.629 83.352 192.629 82.688ZM198.197 82.7C198.197 82.204 198.097 81.772 197.897 81.404C197.697 81.036 197.425 80.756 197.081 80.564C196.745 80.364 196.373 80.264 195.965 80.264C195.557 80.264 195.185 80.36 194.849 80.552C194.513 80.744 194.245 81.024 194.045 81.392C193.845 81.76 193.745 82.192 193.745 82.688C193.745 83.192 193.845 83.632 194.045 84.008C194.245 84.376 194.513 84.66 194.849 84.86C195.185 85.052 195.557 85.148 195.965 85.148C196.373 85.148 196.745 85.052 197.081 84.86C197.425 84.66 197.697 84.376 197.897 84.008C198.097 83.632 198.197 83.196 198.197 82.7ZM202.478 77.12V86H201.386V77.12H202.478ZM205.671 77.12V86H204.579V77.12H205.671ZM213.772 82.46C213.772 82.668 213.76 82.888 213.736 83.12H208.48C208.52 83.768 208.74 84.276 209.14 84.644C209.548 85.004 210.04 85.184 210.616 85.184C211.088 85.184 211.48 85.076 211.792 84.86C212.112 84.636 212.336 84.34 212.464 83.972H213.64C213.464 84.604 213.112 85.12 212.584 85.52C212.056 85.912 211.4 86.108 210.616 86.108C209.992 86.108 209.432 85.968 208.936 85.688C208.448 85.408 208.064 85.012 207.784 84.5C207.504 83.98 207.364 83.38 207.364 82.7C207.364 82.02 207.5 81.424 207.772 80.912C208.044 80.4 208.424 80.008 208.912 79.736C209.408 79.456 209.976 79.316 210.616 79.316C211.24 79.316 211.792 79.452 212.272 79.724C212.752 79.996 213.12 80.372 213.376 80.852C213.64 81.324 213.772 81.86 213.772 82.46ZM212.644 82.232C212.644 81.816 212.552 81.46 212.368 81.164C212.184 80.86 211.932 80.632 211.612 80.48C211.3 80.32 210.952 80.24 210.568 80.24C210.016 80.24 209.544 80.416 209.152 80.768C208.768 81.12 208.548 81.608 208.492 82.232H212.644ZM216.546 80.492C216.738 80.116 217.01 79.824 217.362 79.616C217.722 79.408 218.158 79.304 218.67 79.304V80.432H218.382C217.158 80.432 216.546 81.096 216.546 82.424V86H215.454V79.424H216.546V80.492ZM229.442 79.424V86H228.35V85.028C228.142 85.364 227.85 85.628 227.474 85.82C227.106 86.004 226.698 86.096 226.25 86.096C225.738 86.096 225.278 85.992 224.87 85.784C224.462 85.568 224.138 85.248 223.898 84.824C223.666 84.4 223.55 83.884 223.55 83.276V79.424H224.63V83.132C224.63 83.78 224.794 84.28 225.122 84.632C225.45 84.976 225.898 85.148 226.466 85.148C227.05 85.148 227.51 84.968 227.846 84.608C228.182 84.248 228.35 83.724 228.35 83.036V79.424H229.442ZM234.729 79.304C235.529 79.304 236.177 79.548 236.673 80.036C237.169 80.516 237.417 81.212 237.417 82.124V86H236.337V82.28C236.337 81.624 236.173 81.124 235.845 80.78C235.517 80.428 235.069 80.252 234.501 80.252C233.925 80.252 233.465 80.432 233.121 80.792C232.785 81.152 232.617 81.676 232.617 82.364V86H231.525V79.424H232.617V80.36C232.833 80.024 233.125 79.764 233.493 79.58C233.869 79.396 234.281 79.304 234.729 79.304ZM239.033 82.688C239.033 82.016 239.169 81.428 239.441 80.924C239.713 80.412 240.085 80.016 240.557 79.736C241.037 79.456 241.573 79.316 242.165 79.316C242.677 79.316 243.153 79.436 243.593 79.676C244.033 79.908 244.369 80.216 244.601 80.6V77.12H245.705V86H244.601V84.764C244.385 85.156 244.065 85.48 243.641 85.736C243.217 85.984 242.721 86.108 242.153 86.108C241.569 86.108 241.037 85.964 240.557 85.676C240.085 85.388 239.713 84.984 239.441 84.464C239.169 83.944 239.033 83.352 239.033 82.688ZM244.601 82.7C244.601 82.204 244.501 81.772 244.301 81.404C244.101 81.036 243.829 80.756 243.485 80.564C243.149 80.364 242.777 80.264 242.369 80.264C241.961 80.264 241.589 80.36 241.253 80.552C240.917 80.744 240.649 81.024 240.449 81.392C240.249 81.76 240.149 82.192 240.149 82.688C240.149 83.192 240.249 83.632 240.449 84.008C240.649 84.376 240.917 84.66 241.253 84.86C241.589 85.052 241.961 85.148 242.369 85.148C242.777 85.148 243.149 85.052 243.485 84.86C243.829 84.66 244.101 84.376 244.301 84.008C244.501 83.632 244.601 83.196 244.601 82.7ZM253.791 82.46C253.791 82.668 253.779 82.888 253.755 83.12H248.499C248.539 83.768 248.759 84.276 249.159 84.644C249.567 85.004 250.059 85.184 250.635 85.184C251.107 85.184 251.499 85.076 251.811 84.86C252.131 84.636 252.355 84.34 252.483 83.972H253.659C253.483 84.604 253.131 85.12 252.603 85.52C252.075 85.912 251.419 86.108 250.635 86.108C250.011 86.108 249.451 85.968 248.955 85.688C248.467 85.408 248.083 85.012 247.803 84.5C247.523 83.98 247.383 83.38 247.383 82.7C247.383 82.02 247.519 81.424 247.791 80.912C248.063 80.4 248.443 80.008 248.931 79.736C249.427 79.456 249.995 79.316 250.635 79.316C251.259 79.316 251.811 79.452 252.291 79.724C252.771 79.996 253.139 80.372 253.395 80.852C253.659 81.324 253.791 81.86 253.791 82.46ZM252.663 82.232C252.663 81.816 252.571 81.46 252.387 81.164C252.203 80.86 251.951 80.632 251.631 80.48C251.319 80.32 250.971 80.24 250.587 80.24C250.035 80.24 249.563 80.416 249.171 80.768C248.787 81.12 248.567 81.608 248.511 82.232H252.663ZM256.564 80.492C256.756 80.116 257.028 79.824 257.38 79.616C257.74 79.408 258.176 79.304 258.688 79.304V80.432H258.4C257.176 80.432 256.564 81.096 256.564 82.424V86H255.472V79.424H256.564V80.492ZM263.16 78.32V77.324H265.416V86H264.312V78.32H263.16ZM267.531 81.572C267.531 80.196 267.755 79.124 268.203 78.356C268.651 77.58 269.435 77.192 270.555 77.192C271.667 77.192 272.447 77.58 272.895 78.356C273.343 79.124 273.567 80.196 273.567 81.572C273.567 82.972 273.343 84.06 272.895 84.836C272.447 85.612 271.667 86 270.555 86C269.435 86 268.651 85.612 268.203 84.836C267.755 84.06 267.531 82.972 267.531 81.572ZM272.487 81.572C272.487 80.876 272.439 80.288 272.343 79.808C272.255 79.32 272.067 78.928 271.779 78.632C271.499 78.336 271.091 78.188 270.555 78.188C270.011 78.188 269.595 78.336 269.307 78.632C269.027 78.928 268.839 79.32 268.743 79.808C268.655 80.288 268.611 80.876 268.611 81.572C268.611 82.292 268.655 82.896 268.743 83.384C268.839 83.872 269.027 84.264 269.307 84.56C269.595 84.856 270.011 85.004 270.555 85.004C271.091 85.004 271.499 84.856 271.779 84.56C272.067 84.264 272.255 83.872 272.343 83.384C272.439 82.896 272.487 82.292 272.487 81.572ZM283.971 77.696V86H282.879V79.808L280.119 86H279.351L276.579 79.796V86H275.487V77.696H276.663L279.735 84.56L282.807 77.696H283.971ZM290.251 81.692C290.555 81.74 290.831 81.864 291.079 82.064C291.335 82.264 291.535 82.512 291.679 82.808C291.831 83.104 291.907 83.42 291.907 83.756C291.907 84.18 291.799 84.564 291.583 84.908C291.367 85.244 291.051 85.512 290.635 85.712C290.227 85.904 289.743 86 289.183 86H286.063V77.636H289.063C289.631 77.636 290.115 77.732 290.515 77.924C290.915 78.108 291.215 78.36 291.415 78.68C291.615 79 291.715 79.36 291.715 79.76C291.715 80.256 291.579 80.668 291.307 80.996C291.043 81.316 290.691 81.548 290.251 81.692ZM287.155 81.248H288.991C289.503 81.248 289.899 81.128 290.179 80.888C290.459 80.648 290.599 80.316 290.599 79.892C290.599 79.468 290.459 79.136 290.179 78.896C289.899 78.656 289.495 78.536 288.967 78.536H287.155V81.248ZM289.087 85.1C289.631 85.1 290.055 84.972 290.359 84.716C290.663 84.46 290.815 84.104 290.815 83.648C290.815 83.184 290.655 82.82 290.335 82.556C290.015 82.284 289.587 82.148 289.051 82.148H287.155V85.1H289.087Z" fill="#9496A1"/>
</svg>
