<svg width="22" height="8" viewBox="0 0 22 8" fill="none" xmlns="http://www.w3.org/2000/svg">
<path d="M21 4.5C21.2761 4.5 21.5 4.27614 21.5 4C21.5 3.72386 21.2761 3.5 21 3.5L21 4.5ZM0.646446 3.64644C0.451185 3.8417 0.451185 4.15828 0.646446 4.35354L3.82842 7.53552C4.02369 7.73079 4.34027 7.73079 4.53553 7.53552C4.73079 7.34026 4.73079 7.02368 4.53553 6.82842L1.70711 3.99999L4.53554 1.17156C4.7308 0.976302 4.7308 0.659719 4.53554 0.464457C4.34027 0.269195 4.02369 0.269195 3.82843 0.464457L0.646446 3.64644ZM21 3.5L1 3.49999L1 4.49999L21 4.5L21 3.5Z" fill="#515364"/>
</svg>
