<svg width="24" height="24" viewBox="0 0 24 24" fill="none" xmlns="http://www.w3.org/2000/svg">
<path d="M4.5 3.75L19.5 20.25" stroke="#515364" stroke-linecap="round" stroke-linejoin="round"/>
<path d="M14.5219 14.7751C13.8337 15.4055 12.9333 15.7536 12 15.7501C11.2431 15.75 10.504 15.5209 9.87978 15.0929C9.25555 14.6649 8.77545 14.058 8.50259 13.352C8.22973 12.646 8.17689 11.874 8.35101 11.1374C8.52513 10.4008 8.91806 9.73418 9.47815 9.2251" stroke="#515364" stroke-linecap="round" stroke-linejoin="round"/>
<path d="M6.9375 6.43115C3.1125 8.3624 1.5 11.9999 1.5 11.9999C1.5 11.9999 4.5 18.7499 12 18.7499C13.7574 18.7642 15.4929 18.3593 17.0625 17.5687" stroke="#515364" stroke-linecap="round" stroke-linejoin="round"/>
<path d="M19.5562 15.8531C21.6 14.025 22.5 12 22.5 12C22.5 12 19.5 5.25002 12 5.25002C11.3498 5.24874 10.7006 5.30205 10.0594 5.4094" stroke="#515364" stroke-linecap="round" stroke-linejoin="round"/>
<path d="M12.7031 8.31567C13.5006 8.46678 14.2273 8.87317 14.7735 9.47353C15.3198 10.0739 15.6559 10.8356 15.7313 11.6438" stroke="#515364" stroke-linecap="round" stroke-linejoin="round"/>
</svg>
