<svg width="24" height="24" viewBox="0 0 24 24" fill="none" xmlns="http://www.w3.org/2000/svg">
<path d="M4.125 18.75H5.625C6.02282 18.75 6.40436 18.592 6.68566 18.3107C6.96696 18.0294 7.125 17.6478 7.125 17.25C7.125 16.8522 6.96696 16.4706 6.68566 16.1893C6.40436 15.908 6.02282 15.75 5.625 15.75H4.125V20.25" stroke="#515364" stroke-linecap="round" stroke-linejoin="round"/>
<path d="M10.125 20.25V15.75L13.5 20.25V15.75" stroke="#515364" stroke-linecap="round" stroke-linejoin="round"/>
<path d="M19.125 18.1875H20.25V19.2938C20.0718 19.5822 19.8238 19.8211 19.5288 19.9882C19.2339 20.1554 18.9015 20.2454 18.5625 20.25C17.4188 20.25 16.5 19.2469 16.5 18C16.5 16.7531 17.4188 15.75 18.5625 15.75C18.9668 15.7493 19.3609 15.8773 19.6875 16.1156" stroke="#515364" stroke-linecap="round" stroke-linejoin="round"/>
<path d="M4.5 12V3.75C4.5 3.55109 4.57902 3.36032 4.71967 3.21967C4.86032 3.07902 5.05109 3 5.25 3H14.25L19.5 8.25V12" stroke="#515364" stroke-linecap="round" stroke-linejoin="round"/>
<path d="M14.25 3V8.25H19.5" stroke="#515364" stroke-linecap="round" stroke-linejoin="round"/>
</svg>
