<svg width="24" height="24" viewBox="0 0 24 24" fill="none" xmlns="http://www.w3.org/2000/svg">
<path d="M9.75 18.75H11.25C11.6478 18.75 12.0294 18.592 12.3107 18.3107C12.592 18.0294 12.75 17.6478 12.75 17.25C12.75 16.8522 12.592 16.4706 12.3107 16.1893C12.0294 15.908 11.6478 15.75 11.25 15.75H9.75V20.25" stroke="#515364" stroke-linecap="round" stroke-linejoin="round"/>
<path d="M6.75 15.75V18.75C6.75 19.1478 6.59196 19.5294 6.31066 19.8107C6.02936 20.092 5.64782 20.25 5.25 20.25C4.85218 20.25 4.47064 20.092 4.18934 19.8107C3.90804 19.5294 3.75 19.1478 3.75 18.75" stroke="#515364" stroke-linecap="round" stroke-linejoin="round"/>
<path d="M17.625 18.1875H18.75V19.2938C18.5718 19.5822 18.3238 19.8211 18.0288 19.9882C17.7339 20.1554 17.4015 20.2454 17.0625 20.25C15.9188 20.25 15 19.2469 15 18C15 16.7531 15.9188 15.75 17.0625 15.75C17.4668 15.7493 17.8609 15.8773 18.1875 16.1156" stroke="#515364" stroke-linecap="round" stroke-linejoin="round"/>
<path d="M4.5 12V3.75C4.5 3.55109 4.57902 3.36032 4.71967 3.21967C4.86032 3.07902 5.05109 3 5.25 3H14.25L19.5 8.25V12" stroke="#515364" stroke-linecap="round" stroke-linejoin="round"/>
<path d="M14.25 3V8.25H19.5" stroke="#515364" stroke-linecap="round" stroke-linejoin="round"/>
</svg>
